<svg width="32" height="32" viewBox="0 0 32 32" fill="none" xmlns="http://www.w3.org/2000/svg">
<path d="M16 0.0625C19.1521 0.0625 22.2335 0.997218 24.8544 2.74845C27.4753 4.49969 29.5181 6.98879 30.7243 9.90098C31.9306 12.8132 32.2462 16.0177 31.6313 19.1093C31.0163 22.2008 29.4984 25.0406 27.2695 27.2695C25.0406 29.4984 22.2008 31.0163 19.1092 31.6313C16.0177 32.2462 12.8132 31.9306 9.90097 30.7243C6.98878 29.5181 4.49968 27.4753 2.74845 24.8544C0.99721 22.2335 0.0624924 19.1521 0.0624924 16C0.0672722 11.7746 1.74793 7.72359 4.73576 4.73577C7.72358 1.74794 11.7746 0.0672807 16 0.0625ZM13.1238 21.6238C13.0223 21.7218 12.9414 21.8391 12.8857 21.9687C12.83 22.0983 12.8007 22.2377 12.7995 22.3788C12.7983 22.5199 12.8251 22.6598 12.8786 22.7904C12.932 22.921 13.0109 23.0396 13.1106 23.1394C13.2104 23.2391 13.329 23.318 13.4596 23.3714C13.5902 23.4249 13.7301 23.4517 13.8712 23.4505C14.0122 23.4493 14.1517 23.42 14.2813 23.3643C14.4109 23.3086 14.5282 23.2277 14.6262 23.1262L21.0012 16.7512C21.2004 16.5519 21.3123 16.2817 21.3123 16C21.3123 15.7183 21.2004 15.4481 21.0012 15.2488L14.6262 8.87381C14.4258 8.68027 14.1574 8.57318 13.8788 8.5756C13.6002 8.57802 13.3337 8.68976 13.1367 8.88675C12.9398 9.08375 12.828 9.35024 12.8256 9.62882C12.8232 9.90741 12.9303 10.1758 13.1238 10.3762L18.7476 16L13.1238 21.6238Z" fill="#99B56F"/>
</svg>
