<svg width="32" height="32" viewBox="0 0 32 32" fill="none" xmlns="http://www.w3.org/2000/svg">
<path d="M16 0.0625C12.8479 0.0625 9.76651 0.997218 7.14561 2.74845C4.5247 4.49969 2.48195 6.98879 1.27568 9.90098C0.0694056 12.8132 -0.24621 16.0177 0.368742 19.1093C0.983694 22.2008 2.50159 25.0406 4.73049 27.2695C6.95939 29.4984 9.79918 31.0163 12.8908 31.6313C15.9823 32.2462 19.1868 31.9306 22.099 30.7243C25.0112 29.5181 27.5003 27.4753 29.2516 24.8544C31.0028 22.2335 31.9375 19.1521 31.9375 16C31.9327 11.7746 30.2521 7.72359 27.2642 4.73577C24.2764 1.74794 20.2254 0.0672807 16 0.0625ZM18.8762 21.6238C18.9777 21.7218 19.0586 21.8391 19.1143 21.9687C19.17 22.0983 19.1993 22.2377 19.2005 22.3788C19.2017 22.5199 19.1749 22.6598 19.1214 22.7904C19.068 22.921 18.9891 23.0396 18.8894 23.1394C18.7896 23.2391 18.671 23.318 18.5404 23.3714C18.4098 23.4249 18.2699 23.4517 18.1288 23.4505C17.9878 23.4493 17.8483 23.42 17.7187 23.3643C17.5891 23.3086 17.4718 23.2277 17.3738 23.1262L10.9988 16.7512C10.7996 16.5519 10.6877 16.2817 10.6877 16C10.6877 15.7183 10.7996 15.4481 10.9988 15.2488L17.3738 8.87381C17.5742 8.68027 17.8426 8.57318 18.1212 8.5756C18.3998 8.57802 18.6663 8.68976 18.8633 8.88675C19.0602 9.08375 19.172 9.35024 19.1744 9.62882C19.1768 9.90741 19.0697 10.1758 18.8762 10.3762L13.2524 16L18.8762 21.6238Z" fill="#99B56F"/>
</svg>
