<svg width="164" height="152" viewBox="0 0 164 152" fill="none" xmlns="http://www.w3.org/2000/svg">
<path fill-rule="evenodd" clip-rule="evenodd" d="M30.2154 23.6214V7.17357C30.2154 3.42461 33.2731 0.366934 37.0221 0.366934H156.873C160.622 0.366934 163.68 3.42461 163.68 7.17357V91.2977C163.68 95.0463 160.622 98.1043 156.873 98.1043H140.425V37.0687C140.425 29.6547 134.392 23.6214 126.978 23.6214H30.2154ZM7.12695 30.262C3.37799 30.262 0.320312 33.3197 0.320312 37.0687V123.643C0.320312 127.392 3.37799 130.45 7.12695 130.45H30.2154V149.967C30.2154 150.634 30.5833 151.204 31.1909 151.48C31.7985 151.755 32.4699 151.655 32.9709 151.215L56.6132 130.45H126.978C130.727 130.45 133.785 127.392 133.785 123.643V37.0687C133.785 33.3197 130.727 30.262 126.978 30.262H7.12695ZM98.0746 85.8573C99.2796 85.8573 100.256 84.8808 100.256 83.6762V77.0359C100.256 75.8313 99.2796 74.8548 98.0746 74.8548C91.5359 74.8548 88.2551 66.9336 92.8783 62.3104C93.73 61.4587 93.73 60.0774 92.8783 59.2258L88.1828 54.5302C87.3311 53.6785 85.9498 53.6785 85.0982 54.5302C80.475 59.1534 72.5537 55.8729 72.5537 49.3342C72.5537 48.1293 71.5769 47.1531 70.3726 47.1531H63.7323C62.528 47.1531 61.5512 48.1293 61.5512 49.3342C61.5512 55.8729 53.6299 59.1537 49.0064 54.5302C48.1547 53.6785 46.7735 53.6785 45.9218 54.5302L41.2266 59.2258C40.3749 60.0774 40.3749 61.4587 41.2266 62.3104C45.8498 66.9336 42.569 74.8548 36.0306 74.8548C34.8257 74.8548 33.8495 75.8317 33.8495 77.0359V83.6762C33.8495 84.8805 34.8257 85.8573 36.0306 85.8573C42.569 85.8573 45.8498 93.7786 41.2266 98.4018C40.3749 99.2535 40.3749 100.635 41.2266 101.486L45.9221 106.182C46.7738 107.034 48.1551 107.034 49.0067 106.182C53.6359 101.553 61.5515 104.831 61.5515 111.378C61.5515 112.583 62.5284 113.559 63.7326 113.559H70.3729C71.5772 113.559 72.554 112.583 72.554 111.378C72.554 104.839 80.4753 101.559 85.0985 106.182C85.9502 107.034 87.3314 107.034 88.1831 106.182L92.8787 101.486C93.7303 100.635 93.7303 99.2535 92.8787 98.4018C88.2551 93.7786 91.5359 85.8573 98.0746 85.8573ZM67.0526 66.4471C59.3711 66.4471 53.1438 72.6744 53.1438 80.3559C53.1438 88.0375 59.3711 94.2647 67.0526 94.2647C74.7342 94.2647 80.9614 88.0375 80.9614 80.3559C80.9614 72.6744 74.7342 66.4471 67.0526 66.4471Z" fill="#13B1E7"/>
</svg>
