<svg width="170" height="162" viewBox="0 0 170 162" fill="none" xmlns="http://www.w3.org/2000/svg">
<path d="M144.065 79.9508H165.02C167.769 79.9508 170 77.7229 170 74.9703C170 72.2211 167.769 69.9899 165.02 69.9899H146.044C148.431 54.9422 147.322 44.7654 147.259 44.2176C147.033 42.2486 145.662 40.6018 143.77 40.024C136.203 37.7064 129.608 35.3557 123.871 33.0514V20.7397H140.974C143.029 26.5369 148.567 30.7006 155.059 30.7006C163.296 30.7006 170 23.9969 170 15.7592C170 7.51817 163.296 0.81778 155.059 0.81778C148.567 0.81778 143.029 4.98145 140.974 10.7787H118.89C116.138 10.7787 113.91 13.0066 113.91 15.7592V28.7184C95.449 20.0025 89.3297 12.8539 88.9611 12.409C86.9713 9.67139 83.0304 9.66907 81.0389 12.409C80.6703 12.8539 74.551 20.0025 56.09 28.7184V15.7592C56.09 13.0066 53.8621 10.7787 51.1096 10.7787H29.0262C26.9709 4.98145 21.4326 0.81778 14.9414 0.81778C6.70371 0.81778 0 7.51817 0 15.7592C0 23.9969 6.70371 30.7006 14.9414 30.7006C21.4326 30.7006 26.9709 26.5369 29.0262 20.7397H46.1291V33.0514C40.3916 35.3557 33.7975 37.7064 26.2305 40.024C24.3379 40.6018 22.9666 42.2486 22.7408 44.2176C22.6777 44.7654 21.5688 54.9422 23.9561 69.9899H4.98047C2.23125 69.9899 0 72.2211 0 74.9703C0 77.7229 2.23125 79.9508 4.98047 79.9508H25.935C27.023 84.482 28.2947 88.8373 29.9891 93.5807H16.3061C13.5568 93.5807 11.3256 95.8086 11.3256 98.5611C11.3256 101.31 13.5568 103.542 16.3061 103.542H34.0066C38.3287 113.098 43.5884 121.736 49.8146 129.795H29.0262C26.9709 123.998 21.4326 119.834 14.9414 119.834C6.70371 119.834 0 126.538 0 134.776C0 143.013 6.70371 149.717 14.9414 149.717C21.4326 149.717 26.9709 145.554 29.0262 139.756H58.308C65.3238 147.237 73.2893 154.107 82.1512 160.286C83.8648 161.481 86.1355 161.481 87.8488 160.286C96.7107 154.107 104.676 147.237 111.692 139.756H140.974C143.029 145.554 148.567 149.717 155.059 149.717C163.296 149.717 170 143.013 170 134.776C170 126.538 163.296 119.834 155.059 119.834C148.567 119.834 143.029 123.998 140.974 129.795H120.185C126.397 121.755 131.661 113.12 135.993 103.542H153.694C156.443 103.542 158.674 101.31 158.674 98.5611C158.674 95.8086 156.443 93.5807 153.694 93.5807H140.011C141.703 88.8429 142.975 84.4877 144.065 79.9508ZM112.406 105.464C112.406 110.471 108.335 114.542 103.328 114.542H66.6719C61.6648 114.542 57.5941 110.471 57.5941 105.464V76.9426C57.5941 72.9848 60.1375 69.6147 63.677 68.3729V65.1322C63.677 53.375 73.2428 43.8092 85 43.8092C96.7572 43.8092 106.323 53.375 106.323 65.1322V68.3729C109.863 69.6147 112.406 72.9848 112.406 76.9426V105.464Z" fill="#13B1E7"/>
<path d="M67.5552 77.8258V104.581H102.445V77.8258H67.5552ZM89.9806 92.9598C89.9806 95.7123 87.7493 97.9403 85.0001 97.9403C82.2509 97.9403 80.0196 95.7123 80.0196 92.9598V89.4469C80.0196 86.6944 82.2509 84.4664 85.0001 84.4664C87.7493 84.4664 89.9806 86.6944 89.9806 89.4469V92.9598Z" fill="#13B1E7"/>
<path d="M96.3622 65.1323V67.8649H73.6379V65.1323C73.6379 58.8668 78.7346 53.7701 85 53.7701C91.2655 53.7701 96.3622 58.8668 96.3622 65.1323Z" fill="#13B1E7"/>
</svg>
