<svg width="38" height="38" viewBox="0 0 38 38" fill="none" xmlns="http://www.w3.org/2000/svg">
<path d="M1.01216 36.9878C1.13405 37.1098 1.27881 37.2066 1.43814 37.2727C1.59748 37.3387 1.76827 37.3727 1.94075 37.3727C2.11324 37.3727 2.28403 37.3387 2.44336 37.2727C2.6027 37.2066 2.74745 37.1098 2.86935 36.9878L19 20.8572L35.1372 36.9878C35.3834 37.2341 35.7175 37.3724 36.0658 37.3724C36.414 37.3724 36.7481 37.2341 36.9943 36.9878C37.2406 36.7415 37.379 36.4075 37.379 36.0592C37.379 35.7109 37.2406 35.3769 36.9943 35.1306L20.8572 19L36.9878 2.8628C37.2341 2.61652 37.3724 2.28249 37.3724 1.9342C37.3724 1.58591 37.2341 1.25189 36.9878 1.00561C36.7415 0.759329 36.4075 0.620972 36.0592 0.620972C35.7109 0.620972 35.3769 0.759329 35.1306 1.00561L19 17.1428L2.86278 1.01217C2.6117 0.797148 2.28873 0.68479 1.9584 0.697549C1.62808 0.710308 1.31473 0.847244 1.08098 1.08099C0.847233 1.31474 0.710297 1.62809 0.697538 1.95841C0.684779 2.28874 0.797136 2.61171 1.01216 2.8628L17.1428 19L1.01216 35.1372C0.767704 35.3831 0.630493 35.7157 0.630493 36.0625C0.630493 36.4092 0.767704 36.7419 1.01216 36.9878Z" fill="#99B56F"/>
</svg>
