<svg width="44" height="34" viewBox="0 0 44 34" fill="none" xmlns="http://www.w3.org/2000/svg">
<path fill-rule="evenodd" clip-rule="evenodd" d="M0.25 2.50004C0.25 1.16536 1.33199 0.083374 2.66667 0.083374H41.3333C42.6681 0.083374 43.75 1.16536 43.75 2.50004C43.75 3.83472 42.6681 4.91671 41.3333 4.91671H2.66667C1.33199 4.91671 0.25 3.83472 0.25 2.50004ZM0.25 17C0.25 15.6653 1.33199 14.5834 2.66667 14.5834H26.8333C28.1681 14.5834 29.25 15.6653 29.25 17C29.25 18.3348 28.1681 19.4167 26.8333 19.4167H2.66667C1.33199 19.4167 0.25 18.3348 0.25 17ZM0.25 31.5C0.25 30.1653 1.33199 29.0834 2.66667 29.0834H14.75C16.0847 29.0834 17.1667 30.1653 17.1667 31.5C17.1667 32.8348 16.0847 33.9167 14.75 33.9167H2.66667C1.33199 33.9167 0.25 32.8348 0.25 31.5Z" fill="#6E6E70"/>
</svg>
