<svg width="162" height="162" viewBox="0 0 162 162" fill="none" xmlns="http://www.w3.org/2000/svg">
<circle cx="81" cy="81" r="81" fill="white"/>
<g clip-path="url(#clip0_1_383)">
<path d="M115.3 47.7H104.2V44H59.8V47.7H48.7C46.48 47.7 45 49.18 45 51.4V60.28C45 68.79 51.29 75.82 59.8 76.93V77.3C59.8 88.03 67.2 96.91 77.19 99.13L74.6 106.9H66.09C64.61 106.9 63.13 108.01 62.76 109.49L59.8 118H104.2L101.24 109.49C100.87 108.01 99.39 106.9 97.91 106.9H89.4L86.81 99.13C96.8 96.91 104.2 88.03 104.2 77.3V76.93C112.71 75.82 119 68.79 119 60.28V51.4C119 49.18 117.52 47.7 115.3 47.7ZM59.8 69.53C55.73 68.42 52.4 64.72 52.4 60.28V55.1H59.8V69.53ZM89.4 81L82 76.93L74.6 81L76.45 73.6L70.9 66.2H78.67L82 58.8L85.33 66.2H93.1L87.55 73.6L89.4 81ZM111.6 60.28C111.6 64.72 108.27 68.79 104.2 69.53V55.1H111.6V60.28Z" fill="#99B56F"/>
</g>
<defs>
<clipPath id="clip0_1_383">
<rect width="74" height="74" fill="white" transform="translate(45 44)"/>
</clipPath>
</defs>
</svg>
