<svg width="162" height="162" viewBox="0 0 162 162" fill="none" xmlns="http://www.w3.org/2000/svg">
<circle cx="81" cy="81" r="81" fill="white"/>
<path d="M66.3894 112.664C66.3383 113.172 66.3823 113.704 66.5678 114.231C67.0207 115.5 68.0836 116.535 69.3426 116.925C70.5125 117.294 71.6764 117.048 72.0295 116.664L74.4703 114.045C75.1765 113.29 75.3548 112.083 74.9399 110.912C73.9186 108.955 72.5502 108.249 70.7978 107.933L66.3894 112.664Z" fill="#99B56F"/>
<path d="M63.1247 99.568L58.859 104.143C57.9923 105.086 57.7438 106.535 58.2277 107.924C58.7413 109.391 59.967 110.584 61.4341 111.03C62.8228 111.446 64.2161 111.123 65.0888 110.194L69.0383 105.958C69.9109 105.018 70.1534 103.576 69.6696 102.187C69.156 100.713 67.9231 99.524 66.4631 99.0806C65.298 98.7084 63.9308 98.6942 63.1247 99.568Z" fill="#99B56F"/>
<path d="M54.668 92.0399L50.7292 96.2688C49.8613 97.2045 49.6188 98.6585 50.0979 100.052C50.6115 101.514 51.8373 102.708 53.3044 103.154C54.6906 103.576 56.0983 103.246 56.537 102.782L60.9097 98.089C61.7823 97.1462 62.0249 95.697 61.541 94.3107C61.025 92.8389 59.7993 91.65 58.3322 91.2089C56.9828 90.769 55.4895 91.1602 54.668 92.0399Z" fill="#99B56F"/>
<path d="M46.963 83.7034L42.5974 88.3983C41.7248 89.3387 41.4822 90.7809 41.9661 92.1624C42.475 93.6413 43.7078 94.8302 45.1749 95.2761C46.5612 95.6898 47.9664 95.3688 48.4004 94.898L52.7779 90.2054V90.2007C53.6505 89.2722 53.8931 87.8277 53.4092 86.4414C52.9027 84.9624 51.6698 83.7736 50.2027 83.3325C49.0816 82.9461 47.7251 82.8795 46.963 83.7034Z" fill="#99B56F"/>
<path d="M103.64 55.704C100.816 57.2828 96.8915 57.5658 93.0692 57.8404C90.1778 58.0378 87.1949 58.247 85.0514 59.0388L73.1327 63.4365C73.0519 63.4686 72.9699 63.4876 72.8843 63.4995C72.3088 63.5899 71.7762 63.6672 71.2983 63.7337C68.3962 64.1427 68.0609 64.2675 67.7269 65.1271C67.4225 65.9213 67.7566 67.0662 68.5817 68.0387C69.2546 68.8376 71.888 71.3319 77.3057 70.0491L84.0931 69.1527C87.894 68.6629 90.9411 71.1405 93.3748 73.1402L111.628 87.7422L111.642 87.735C115.25 86.2251 119.01 84.2611 122.205 80.4115L103.64 55.704Z" fill="#99B56F"/>
<path d="M78.5243 54.817C77.4425 54.9168 76.2025 55.0536 74.9018 55.1891C67.7078 55.9571 63.7191 56.2591 61.6897 55.8834L43.0134 80.1926C43.7006 80.8429 44.2701 81.5182 44.729 82.2494C46.29 80.6515 48.6488 80.0809 50.9457 80.7752C53.1998 81.4552 55.0818 83.2825 55.8689 85.5498C56.203 86.5092 56.3076 87.4936 56.222 88.4364C57.1434 88.3068 58.1171 88.3603 59.0753 88.6528C61.3235 89.328 63.2127 91.1601 63.9937 93.4273C64.3326 94.382 64.4396 95.364 64.3587 96.3068C65.2801 96.1772 66.2538 96.2319 67.2121 96.5303C69.4555 97.2104 71.3363 99.0377 72.1234 101.293C72.618 102.723 72.637 104.195 72.2351 105.515C72.4646 105.559 72.7 105.615 72.9342 105.688C74.947 106.313 76.6566 107.966 77.3925 110.005C78.094 111.979 77.7896 114.052 76.6376 115.541L79.951 118.191C80.7618 118.834 81.9436 118.904 83.0469 118.369C84.2429 117.789 85.1465 116.611 85.4128 115.292C85.5245 114.742 85.4877 114.208 85.3617 113.713L81.1589 110.351C80.5942 109.898 80.4943 109.062 80.9354 108.482C81.3812 107.907 82.1992 107.8 82.7675 108.253L87.8203 112.302C88.322 112.704 89.7594 112.811 91.0778 112.19C92.4641 111.528 93.5115 110.163 93.8016 108.64C94.0798 107.201 93.6339 105.805 92.6424 105.006L88.0723 101.349C87.5028 100.896 87.403 100.058 87.8488 99.4847C88.2899 98.9022 89.1126 98.7952 89.6761 99.2553L96.3196 104.568C97.3183 105.363 98.7533 105.472 100.079 104.854C101.453 104.196 102.501 102.834 102.798 101.294C103.076 99.8545 102.63 98.4635 101.628 97.6574L94.9821 92.3514C94.4127 91.8937 94.3128 91.0579 94.7586 90.4729C95.2045 89.8999 96.0224 89.8 96.5931 90.2518C96.5931 90.2518 106.684 98.3208 106.692 98.3208C107.193 98.7155 108.623 98.8273 109.936 98.1995C111.325 97.5516 112.365 96.1891 112.667 94.6543C112.94 93.2121 112.494 91.8116 111.497 91.0198L91.746 75.2136C89.48 73.3553 87.139 71.4305 84.4201 71.7955L77.7694 72.6634C73.2861 73.7405 69.0572 72.6753 66.6117 69.7839C65.1375 68.0422 64.6357 65.8879 65.298 64.1557C66.2265 61.753 68.0051 61.5045 70.9404 61.0907C71.3791 61.0349 71.8511 60.9659 72.3707 60.8839L84.1668 56.5325C84.9337 56.2472 85.7825 56.0499 86.6611 55.8751C83.6283 54.7017 81.43 54.6315 78.5243 54.817Z" fill="#99B56F"/>
<path d="M52.8896 50.2101C50.7413 50.0472 48.7796 51.6665 45.956 55.3437L38.7347 64.7502C36.1227 68.1433 35.1442 70.2536 35.3606 72.0417C35.5342 73.5111 36.5566 74.9533 37.5708 75.7665L40.9959 78.5021L59.5961 54.2928L57.1886 52.3656C55.5337 51.0459 54.1783 50.31 52.8896 50.2101Z" fill="#99B56F"/>
<path d="M112.534 50.1851C111.245 50.2659 109.878 50.9864 108.21 52.287L105.776 54.175L124.118 78.5817L126.489 76.7377C128.54 75.147 129.586 73.7239 129.777 72.2556C130.014 70.4723 129.066 68.3454 126.496 64.9083L119.392 55.4114C116.625 51.6962 114.688 50.0472 112.534 50.1851Z" fill="#99B56F"/>
</svg>
