<svg width="162" height="162" viewBox="0 0 162 162" fill="none" xmlns="http://www.w3.org/2000/svg">
<circle cx="81" cy="81" r="81" fill="white"/>
<path d="M118.854 90.1172C118.854 87.3779 116.612 85.1367 113.873 85.1367C116.612 85.1367 118.854 82.8955 118.854 80.1563C118.854 77.417 116.612 75.1758 113.873 75.1758H93.4533C96.4912 66.0614 96.4414 63.1563 96.4414 57.5781C96.4414 53.4342 93.0437 50.1074 88.9707 50.1074H87.4766C86.5303 50.1074 85.335 50.8547 85.0858 52C82.6219 61.5926 78.7699 72.5999 69.0488 74.8295V110.865L77.6649 113.724C80.2049 114.571 82.8447 115.019 85.5342 115.019H108.893C111.643 115.02 113.873 112.789 113.873 110.039C113.873 107.288 111.643 105.059 108.893 105.059H113.873C116.612 105.059 118.854 102.817 118.854 100.078C118.854 97.3389 116.612 95.0977 113.873 95.0977C116.612 95.0977 118.854 92.8564 118.854 90.1172Z" fill="#99B56F"/>
<path d="M56.5977 70.1953H46.6367C45.2603 70.1953 44.1465 71.3091 44.1465 72.6855V117.51C44.1465 118.886 45.2603 120 46.6367 120H56.5977C60.7172 120 64.0684 116.649 64.0684 112.529V77.666C64.0684 73.5465 60.7172 70.1953 56.5977 70.1953ZM56.5977 110.039C55.2224 110.039 54.1074 108.924 54.1074 107.549C54.1074 106.173 55.2224 105.059 56.5977 105.059C57.9729 105.059 59.0879 106.173 59.0879 107.549C59.0879 108.924 57.9729 110.039 56.5977 110.039Z" fill="#99B56F"/>
<path d="M78.4043 45.9806L74.883 42.4593C73.9103 41.4866 72.3343 41.4866 71.3616 42.4593C70.3889 43.4319 70.3889 45.0079 71.3616 45.9806L74.883 49.502C75.8556 50.4746 77.4315 50.4746 78.4043 49.502C79.377 48.5293 79.377 46.9533 78.4043 45.9806Z" fill="#99B56F"/>
<path d="M106.58 42.4593C105.607 41.4866 104.031 41.4866 103.058 42.4593L99.5371 45.9806C98.5644 46.9533 98.5644 48.5293 99.5371 49.502C100.51 50.4746 102.086 50.4746 103.058 49.502L106.58 45.9806C107.553 45.0079 107.553 43.4319 106.58 42.4593Z" fill="#99B56F"/>
<path d="M88.9707 35C87.576 35 86.4805 36.0955 86.4805 37.4902V42.6367C86.4805 44.0314 87.576 45.127 88.9707 45.127C90.3654 45.127 91.4609 44.0314 91.4609 42.6367V37.4902C91.4609 36.0955 90.3654 35 88.9707 35Z" fill="#99B56F"/>
</svg>
