<svg width="162" height="162" viewBox="0 0 162 162" fill="none" xmlns="http://www.w3.org/2000/svg">
<circle cx="81" cy="81" r="81" fill="white"/>
<g clip-path="url(#clip0_1_346)">
<path d="M90.0817 56.3374C92.2636 55.3694 94.7375 54.8316 97.1806 54.8316C98.5943 54.8316 99.9465 55.0006 101.222 55.3233C101.729 55.4462 102.221 55.016 102.144 54.4936L101.959 53.0184C101.806 50.5599 98.9938 48.5778 95.6287 48.5778C92.1714 48.5778 88.8678 50.6521 88.8678 53.2182L89.0215 55.6767C89.0676 56.2145 89.6054 56.5526 90.0817 56.3374Z" fill="#99B56F"/>
<path d="M118.877 98.6085L118.8 98.1629C118.8 98.1322 118.785 98.1014 118.785 98.0707L115.942 83.6269C115.573 80.2926 113.146 77.3885 109.612 75.5907L108.259 65.0959C108.259 60.6398 103.219 56.9982 97.1807 56.9982C91.142 56.9982 85.3952 60.6091 85.3952 65.0805C85.3952 65.2956 85.4106 65.5261 85.4413 65.7413L85.5181 66.8783C84.3196 66.4481 82.9521 66.2022 81.5077 66.2022C80.0479 66.2022 78.6804 66.4481 77.4665 66.8937L77.5433 65.7413C77.5741 65.5261 77.5894 65.311 77.5894 65.0805C77.5894 60.6245 71.8273 56.9982 65.8039 56.9982C59.7652 56.9982 54.7253 60.6398 54.7253 65.0959L53.3731 75.5907C49.839 77.3731 47.4112 80.2926 47.0424 83.6269L44.1998 98.0707C44.1998 98.1014 44.1844 98.1322 44.1844 98.1629L44.1076 98.6085C44.0461 99.0695 44 99.5304 44 100.007C44 106.86 51.1758 112.422 60.0111 112.422C68.8463 112.422 76.0221 106.86 76.0221 100.007V94.3215C77.6048 95.059 79.4948 95.4739 81.5077 95.4739C83.5206 95.4739 85.3952 95.059 86.9779 94.3368V100.007C86.9779 106.86 94.1537 112.422 102.989 112.422C111.809 112.422 119 106.86 119 100.007C118.985 99.5304 118.939 99.0695 118.877 98.6085ZM60.0111 107.951C53.7572 107.951 48.4714 104.309 48.4714 100.007C48.4714 95.689 53.7572 92.0627 60.0111 92.0627C66.2649 92.0627 71.5507 95.7044 71.5507 100.007C71.5507 104.309 66.2649 107.951 60.0111 107.951ZM81.5077 91.5403C78.8801 91.5403 76.7443 90.0498 76.7443 88.2213C76.7443 86.3928 78.8801 84.9023 81.5077 84.9023C84.1352 84.9023 86.271 86.3928 86.271 88.2213C86.271 90.0498 84.1352 91.5403 81.5077 91.5403ZM102.974 107.951C96.7197 107.951 91.4339 104.309 91.4339 100.007C91.4339 95.689 96.7197 92.0627 102.974 92.0627C109.227 92.0627 114.513 95.7044 114.513 100.007C114.513 104.309 109.227 107.951 102.974 107.951Z" fill="#99B56F"/>
<path d="M61.7474 55.3233C63.0227 55.0006 64.3903 54.8316 65.7885 54.8316C68.2317 54.8316 70.7209 55.3694 72.8875 56.3375C73.3638 56.5526 73.9016 56.2145 73.9324 55.6921L74.086 53.2336C74.086 50.6675 70.7824 48.5931 67.3251 48.5931C63.96 48.5931 61.1635 50.5753 60.9944 53.0338L60.8101 54.5089C60.7486 55.016 61.2249 55.4616 61.7474 55.3233Z" fill="#99B56F"/>
</g>
<defs>
<clipPath id="clip0_1_346">
<rect width="75" height="75" fill="white" transform="translate(44 43)"/>
</clipPath>
</defs>
</svg>
