<svg width="168" height="166" viewBox="0 0 168 166" fill="none" xmlns="http://www.w3.org/2000/svg">
<path fill-rule="evenodd" clip-rule="evenodd" d="M101.768 64.8628C120.657 64.8628 135.969 80.1747 135.969 99.0633C135.969 117.952 120.657 133.264 101.768 133.264C82.8801 133.264 67.5679 117.952 67.5679 99.0633C67.5679 80.1747 82.8801 64.8628 101.768 64.8628ZM127.817 128.771L134.475 135.297L134.117 135.666C132.926 136.893 132.955 138.872 134.183 140.063L152.964 158.287C154.191 159.478 156.17 159.449 157.361 158.222L164.141 151.233C165.332 150.006 165.302 148.028 164.075 146.837L145.294 128.612C144.067 127.421 142.088 127.451 140.898 128.678L140.483 129.105L133.648 122.406C131.94 124.735 129.983 126.869 127.817 128.771ZM32.4054 1.21506C14.4638 2.57174 0.327881 17.5593 0.327881 35.8486C0.327881 55.0314 15.8786 70.5824 35.0617 70.5824C40.4495 70.5824 45.5512 69.3558 50.1017 67.1661L32.8603 37.3358C32.5731 36.9114 32.4054 36.3997 32.4054 35.8489V1.21506ZM112.826 137.005V162.482C112.826 164.311 111.335 165.803 109.506 165.803C105.829 165.803 102.153 165.803 98.4763 165.803C96.6475 165.803 95.156 164.311 95.156 162.482V138.022C97.3066 138.384 99.5153 138.576 101.769 138.576C105.607 138.576 109.317 138.027 112.826 137.005ZM113.629 16.6309C112.162 16.6309 110.973 15.4416 110.973 13.9747C110.973 12.5078 112.162 11.3184 113.629 11.3184H139.323C140.79 11.3184 141.979 12.5078 141.979 13.9747C141.979 15.4416 140.79 16.6309 139.323 16.6309H113.629ZM89.982 55.0656H98.9402C100.999 55.0656 102.678 56.7446 102.678 58.8032V59.5616C102.375 59.5549 102.073 59.55 101.768 59.55C96.2574 59.55 91.0103 60.6799 86.2443 62.7185V58.8032C86.2443 56.7446 87.9234 55.0656 89.982 55.0656ZM123.69 66.1869C126.002 67.7319 128.141 69.5146 130.074 71.4994H139.323C140.79 71.4994 141.979 70.3101 141.979 68.8432C141.979 67.3763 140.79 66.1869 139.323 66.1869H123.69ZM113.629 60.3781C112.162 60.3781 110.973 59.1887 110.973 57.7218C110.973 56.2549 112.162 55.0656 113.629 55.0656H165.016C166.483 55.0656 167.672 56.2549 167.672 57.7218C167.672 59.1887 166.483 60.3781 165.016 60.3781H113.629ZM89.982 27.6315H98.9402C100.999 27.6315 102.678 29.3106 102.678 31.3691V40.3273C102.678 42.3859 100.999 44.065 98.9402 44.065H89.982C87.9234 44.065 86.2443 42.3859 86.2443 40.3273V31.3691C86.2443 29.3106 87.9234 27.6315 89.982 27.6315ZM113.629 44.0654C112.162 44.0654 110.973 42.876 110.973 41.4091C110.973 39.9422 112.162 38.7529 113.629 38.7529H139.323C140.79 38.7529 141.979 39.9422 141.979 41.4091C141.979 42.876 140.79 44.0654 139.323 44.0654H113.629ZM113.629 32.944C112.162 32.944 110.973 31.7546 110.973 30.2877C110.973 28.8208 112.162 27.6315 113.629 27.6315H165.016C166.483 27.6315 167.672 28.8208 167.672 30.2877C167.672 31.7546 166.483 32.944 165.016 32.944H113.629ZM89.982 0.197388H98.9402C100.999 0.197388 102.678 1.87647 102.678 3.93506V12.8933C102.678 14.9519 100.999 16.6309 98.9402 16.6309H89.982C87.9234 16.6309 86.2443 14.9519 86.2443 12.8933V3.93506C86.2443 1.87647 87.9234 0.197388 89.982 0.197388ZM113.629 5.50989C112.162 5.50989 110.973 4.32055 110.973 2.85364C110.973 1.38672 112.162 0.197388 113.629 0.197388H165.016C166.483 0.197388 167.672 1.38672 167.672 2.85364C167.672 4.32055 166.483 5.50989 165.016 5.50989H113.629ZM80.7568 132.528C73.9034 128.216 68.4677 121.857 65.3067 114.31C64.0158 114.765 63.0861 115.999 63.0861 117.442V162.482C63.0861 164.311 64.5776 165.803 66.4064 165.803H77.4362C79.265 165.803 80.7565 164.311 80.7565 162.482L80.7568 132.528ZM34.3372 89.6499H45.3669C47.1958 89.6499 48.6872 91.1414 48.6872 92.9702V162.482C48.6872 164.311 47.1958 165.803 45.3669 165.803C41.6903 165.803 38.0138 165.803 34.3372 165.803C32.5084 165.803 31.0169 164.311 31.0169 162.482C31.0169 139.311 31.0169 116.141 31.0169 92.9702C31.0169 91.1414 32.5084 89.6499 34.3372 89.6499ZM3.64886 105.157H14.6786C16.5074 105.157 17.9989 106.649 17.9989 108.477V162.482C17.9989 164.311 16.5074 165.803 14.6786 165.803C11.002 165.803 7.32544 165.803 3.64886 165.803C1.82003 165.803 0.328545 164.311 0.328545 162.482C0.328545 144.481 0.328545 126.479 0.328545 108.477C0.328545 106.649 1.82003 105.157 3.64886 105.157ZM54.687 64.5079L39.6576 38.5048H69.6945C68.8777 49.3015 63.125 58.7186 54.687 64.5079ZM69.6942 33.1923H37.7179V1.21506C54.783 2.50534 68.4036 16.1273 69.6942 33.1923ZM101.768 76.8163C95.6252 76.8163 90.0633 79.3062 86.0378 83.3317C82.0122 87.3572 79.5223 92.9191 79.5223 99.0623C79.5223 104.724 81.637 109.891 85.1194 113.818C87.2802 106.671 93.9175 101.464 101.769 101.464C109.622 101.464 116.258 106.67 118.417 113.818C121.9 109.892 124.015 104.724 124.015 99.0627C124.015 92.9194 121.525 87.3576 117.499 83.332C113.474 79.3062 107.912 76.8163 101.768 76.8163ZM101.768 82.5647C96.9125 82.5647 92.9759 86.5013 92.9759 91.3572C92.9759 96.2132 96.9125 100.15 101.768 100.15C106.624 100.15 110.561 96.2132 110.561 91.3572C110.561 86.5013 106.624 82.5647 101.768 82.5647ZM82.2818 79.5758C77.2944 84.5629 74.2098 91.4525 74.2098 99.0623C74.2098 106.672 77.2944 113.562 82.2818 118.549C87.2689 123.536 94.1586 126.621 101.768 126.621C109.378 126.621 116.268 123.536 121.255 118.549C126.242 113.562 129.327 106.672 129.327 99.0623C129.327 91.4525 126.242 84.5629 121.255 79.5758C116.268 74.5887 109.378 71.5038 101.768 71.5038C94.1586 71.5038 87.2686 74.5887 82.2818 79.5758Z" fill="#13B1E7"/>
</svg>
